<svg xmlns="http://www.w3.org/2000/svg" viewBox="0 0 312.06 75.11"><defs><style>.cls-1{fill:aqua;}.cls-2{fill:#010000;}</style></defs><g id="Layer_1" data-name="Layer 1"><polygon class="cls-1" points="16.47 0 0 75.11 294.52 75.11 310.99 0 16.47 0"/><path class="cls-2" d="M56,45.16c-1.88,7.54-4.11,13.67-14.38,13.67-11.26,0-13.32-6.25-10.21-21.14,3.35-16.07,7.86-19.75,16.31-19.75,9.63,0,12.27,5.84,10.68,14.2H47.27c.94-4.85.94-6.19-.17-6.19-1.29,0-1.94,1.75-4.17,12.2s-2.34,12.56-1,12.56c1.11,0,1.7-1.28,2.69-5.55Z"/><path class="cls-2" d="M86.93,38.62c-3.75,17.11-8.27,20.21-16.54,20.21-8.8,0-14-3.74-10.09-21.79,3.46-16.18,9-19.1,16.37-19.1C85.11,17.94,90.63,21.91,86.93,38.62Zm-15.08-.88c-2.52,11.8-2.4,13-.88,13s1.94-1.4,4.35-12.85c2.34-10.92,2.17-11.8.7-11.8C74.73,26.06,74.14,27.11,71.85,37.74Z"/><path class="cls-2" d="M95.14,18.7h11.39L100,49.48h10.73l-2.46,8.59H86.75Z"/><path class="cls-2" d="M136,42.07h-9.8l-1.64,7.65h11.73l-2.64,8.35H111.45l8.39-39.37h21.59l-1.81,8.41H129.35l-1.41,6.55h9.8Z"/><path class="cls-2" d="M165.19,45.16c-1.87,7.54-4.1,13.67-14.37,13.67-11.26,0-13.32-6.25-10.21-21.14,3.35-16.07,7.86-19.75,16.31-19.75,9.62,0,12.26,5.84,10.68,14.2H156.45c.94-4.85.94-6.19-.17-6.19-1.29,0-1.94,1.75-4.17,12.2s-2.35,12.56-1.05,12.56c1.11,0,1.7-1.28,2.69-5.55Z"/><path class="cls-2" d="M194,45.16c-1.88,7.54-4.11,13.67-14.37,13.67-11.27,0-13.32-6.25-10.21-21.14,3.34-16.07,7.86-19.75,16.31-19.75,9.62,0,12.26,5.84,10.68,14.2H185.26c.94-4.85.94-6.19-.18-6.19-1.29,0-1.93,1.75-4.16,12.2s-2.35,12.56-1.06,12.56c1.12,0,1.7-1.28,2.7-5.55Z"/><path class="cls-2" d="M202.86,18.7h11.38l-6.57,30.78h10.74l-2.47,8.59H194.47Z"/><path class="cls-2" d="M237.77,18.7l-6.22,29c-.36,1.81-.18,3,1.23,3s1.88-1.17,2.23-3l6.22-29h11.56l-6,27.92c-1.93,9.06-6.16,12.15-14.78,12.15s-13.62-3.27-11.5-13l5.81-27Z"/><path class="cls-2" d="M257.18,18.7H269.8c8.74,0,11.26,4.79,10,11.16-.82,4.26-3.23,6.77-6.63,7.71,2.52,1.28,5.16,4.44,4.17,9.87-1.41,7.65-5.75,10.63-14.26,10.63H248.79Zm4.11,32h.53c1.88,0,3.17-.82,4-4.79s-.06-5-2-5h-.41Zm3.76-16.53c2.22,0,3.05-.41,3.75-3.68.59-2.8.59-4.44-1.76-4.44h-.47l-1.76,8.12Z"/></g></svg>