<svg xmlns="http://www.w3.org/2000/svg" viewBox="0 0 342.77 30.13"><defs><style>.cls-1,.cls-2{fill:#fff;}.cls-1{stroke:#fff;stroke-miterlimit:10;stroke-width:0.75px;}.cls-2{font-size:24px;font-family:SpaceMono-Regular, Space Mono;}</style></defs><g id="Layer_1" data-name="Layer 1"><polygon class="cls-1" points="200.51 0.38 200.51 26.16 208.38 26.16 224.03 0.38 200.51 0.38"/><polygon class="cls-1" points="229.88 0.38 214.23 26.16 229.5 26.16 245.16 0.38 229.88 0.38"/><polygon class="cls-1" points="251.01 0.38 235.36 26.16 250.63 26.16 266.28 0.38 251.01 0.38"/><polygon class="cls-1" points="272.13 0.38 256.48 26.16 271.75 26.16 287.4 0.38 272.13 0.38"/><polygon class="cls-1" points="293.26 0.38 277.61 26.16 292.88 26.16 308.53 0.38 293.26 0.38"/><polygon class="cls-1" points="314.38 0.38 298.73 26.16 314 26.16 329.65 0.38 314.38 0.38"/><polygon class="cls-1" points="335.51 0.38 319.86 26.16 342.39 26.16 342.39 0.38 335.51 0.38"/><text class="cls-2" transform="translate(0 22.71)">FAN LEVEL</text></g></svg>