<svg xmlns="http://www.w3.org/2000/svg" xmlns:xlink="http://www.w3.org/1999/xlink" viewBox="0 0 343.4 30.75"><defs><style>.cls-1{fill:none;stroke:url(#Degradado_sin_nombre_12);}.cls-1,.cls-2{stroke-miterlimit:10;}.cls-2{stroke:#000;stroke-width:2px;}.cls-3{font-size:24px;fill:#010000;font-family:SpaceMono-Regular, Space Mono;}</style><linearGradient id="Degradado_sin_nombre_12" x1="-72.48" y1="-455.41" x2="414.88" y2="-455.41" gradientUnits="userSpaceOnUse"><stop offset="0" stop-color="#e815ff"/><stop offset="1" stop-color="#9c63ff"/></linearGradient></defs><g id="Layer_1" data-name="Layer 1"><rect class="cls-1" x="-71.98" y="-988.95" width="486.36" height="1067.09"/><polygon class="cls-2" points="200.52 1 200.52 26.78 208.38 26.78 224.03 1 200.52 1"/><polygon class="cls-2" points="229.89 1 214.24 26.78 229.5 26.78 245.16 1 229.89 1"/><polygon class="cls-2" points="251.01 1 235.36 26.78 250.63 26.78 266.28 1 251.01 1"/><polygon class="cls-2" points="272.14 1 256.48 26.78 271.75 26.78 287.4 1 272.14 1"/><polygon class="cls-2" points="293.26 1 277.61 26.78 292.88 26.78 308.53 1 293.26 1"/><polygon class="cls-2" points="314.38 1 298.73 26.78 314 26.78 329.65 1 314.38 1"/><polygon class="cls-2" points="335.51 1 319.86 26.78 342.39 26.78 342.39 1 335.51 1"/><text class="cls-3" transform="translate(0 23.33)">FAN LEVEL</text></g></svg>