<svg xmlns="http://www.w3.org/2000/svg" viewBox="0 0 26 31"><defs><style>.cls-1{fill:aqua;}</style></defs><g id="Layer_1" data-name="Layer 1"><path class="cls-1" d="M13.06,6h9.19a3.31,3.31,0,0,1,3.59,3.55q0,6,0,12A3.3,3.3,0,0,1,22.33,25H3.69A3.3,3.3,0,0,1,.15,21.48q0-6,0-12A3.28,3.28,0,0,1,3.67,6h9.39ZM24.31,8.45c-.24.17-.42.28-.59.42-3.33,2.48-6.66,5-10,7.45a1.05,1.05,0,0,1-1.48,0C9.46,14.2,6.62,12.1,3.79,10L1.71,8.48a1.46,1.46,0,0,0-.18.9V21.23a2.14,2.14,0,0,0,2.4,2.43H22a2.13,2.13,0,0,0,2.44-2.44c0-3.89,0-7.77,0-11.65A2.42,2.42,0,0,0,24.31,8.45Zm-.88-1c-1-.34-20.11-.28-20.86.09a2.68,2.68,0,0,1,.29.14Q7.78,11.31,12.7,15c.31.23.49.12.74-.07l4.8-3.57Z"/></g></svg>