<svg xmlns="http://www.w3.org/2000/svg" viewBox="0 0 26 31"><defs><style>.cls-1{fill:aqua;}</style></defs><g id="Layer_1" data-name="Layer 1"><path class="cls-1" d="M.46,9.27a4.16,4.16,0,0,1,.43-1.9A11.39,11.39,0,0,1,4.85,3a1.69,1.69,0,0,1,1.81-.06,8,8,0,0,1,4.16,5.14,1.6,1.6,0,0,1-.48,1.66c-.58.56-1.16,1.12-1.76,1.66a1,1,0,0,0-.31,1A6,6,0,0,0,9,14.23,16.7,16.7,0,0,0,14.48,20a4.42,4.42,0,0,0,.6.34c1.52.74,1.75.7,2.89-.57.31-.34.63-.66.92-1a2,2,0,0,1,2.47-.56,6.49,6.49,0,0,1,3.93,3.76A2.78,2.78,0,0,1,25,24.67,10.6,10.6,0,0,1,23,27a5.27,5.27,0,0,1-6.08.61,25.08,25.08,0,0,1-5.87-4c-3.75-3.33-7.29-6.86-9.7-11.34A6.24,6.24,0,0,1,.46,9.27Zm16.38,12.9a4.88,4.88,0,0,1-2.2-.57,16.92,16.92,0,0,1-6.26-5.71,9.32,9.32,0,0,1-1.45-3.15,2.24,2.24,0,0,1,.73-2.39c.51-.45,1-.93,1.51-1.38A.77.77,0,0,0,9.41,8a7.5,7.5,0,0,0-3-3.71,1,1,0,0,0-1.24.09A12.1,12.1,0,0,0,2.33,7.54a3.24,3.24,0,0,0-.22,3.05,15.18,15.18,0,0,0,1.37,2.62,44,44,0,0,0,7.23,8.25,26.81,26.81,0,0,0,6.86,4.94,4,4,0,0,0,5.18-1c.38-.41.7-.87,1-1.31A1.54,1.54,0,0,0,24,22.44a5.2,5.2,0,0,0-3.07-3,.94.94,0,0,0-1.15.3c-.55.62-1.12,1.23-1.7,1.83A1.44,1.44,0,0,1,16.84,22.17Z"/></g></svg>