<svg xmlns="http://www.w3.org/2000/svg" viewBox="0 0 26 31"><defs><style>.cls-1{fill:none;stroke:aqua;stroke-miterlimit:10;stroke-width:1.5px;}</style></defs><g id="Layer_1" data-name="Layer 1"><path class="cls-1" d="M7,27.09A6,6,0,0,1,1.38,21.4c-.17-3.94-.17-7.9,0-11.84A5.9,5.9,0,0,1,7.12,3.88c3.88-.16,7.78-.16,11.67,0a5.87,5.87,0,0,1,5.78,5.68,98.61,98.61,0,0,1,0,11.66c-.23,3.71-2.78,5.85-6.53,6-1.71.06-5.13,0-5.13,0S8.94,27.29,7,27.09Z"/><path class="cls-1" d="M12.9,21.21a5.72,5.72,0,1,1,5.8-5.59A5.72,5.72,0,0,1,12.9,21.21Z"/><path class="cls-1" d="M18.66,8.46a1.15,1.15,0,0,1,1.12-1.15,1.14,1.14,0,0,1,0,2.28A1.15,1.15,0,0,1,18.66,8.46Z"/></g></svg>