<?xml version="1.0" encoding="utf-8"?>
<!-- Generator: Adobe Illustrator 25.2.0, SVG Export Plug-In . SVG Version: 6.00 Build 0)  -->
<svg version="1.1" id="Capa_1" xmlns="http://www.w3.org/2000/svg" xmlns:xlink="http://www.w3.org/1999/xlink" x="0px" y="0px"
	 viewBox="0 0 288.7 41.2" style="enable-background:new 0 0 288.7 41.2;" xml:space="preserve">
<style type="text/css">
	.st0{fill:none;stroke:#00FFFF;stroke-width:2;stroke-miterlimit:10;}
	.st1{enable-background:new    ;}
	.st2{fill:#00FFFF;}
</style>
<g id="Layer_1">
	<ellipse class="st0" cx="45.1" cy="20.6" rx="44.1" ry="19.6"/>
	<ellipse class="st0" cx="45.1" cy="20.6" rx="31.8" ry="19.6"/>
	<circle class="st0" cx="45.1" cy="20.6" r="19.6"/>
	<line class="st0" x1="89.2" y1="20.6" x2="64.7" y2="20.6"/>
	<line class="st0" x1="25.5" y1="20.6" x2="1" y2="20.6"/>
	<g class="st1">
		<path class="st2" d="M38,28.3c-1.8,0-3.3-0.6-4.3-1.8c-1-1.2-1.6-2.9-1.6-5.1v-3.7c0-2.2,0.5-3.8,1.6-5.1c1-1.2,2.5-1.8,4.3-1.8
			c1.9,0,3.3,0.6,4.3,1.8s1.6,2.9,1.6,5.1v3.7c0,2.2-0.5,3.9-1.6,5.1S39.9,28.3,38,28.3z M38,26.5c1.3,0,2.3-0.5,2.9-1.4
			c0.6-0.9,1-2.2,1-3.8v-3.5c0-1.5-0.3-2.8-1-3.7c-0.6-1-1.6-1.4-2.9-1.4c-1.3,0-2.3,0.5-2.9,1.4c-0.6,1-1,2.2-1,3.7v3.5
			c0,1.6,0.3,2.9,1,3.8C35.7,26,36.7,26.5,38,26.5z M38,21.1c-0.4,0-0.8-0.2-1.1-0.5c-0.3-0.3-0.5-0.7-0.5-1.1
			c0-0.4,0.2-0.8,0.5-1.1c0.3-0.3,0.7-0.5,1.1-0.5c0.4,0,0.8,0.2,1.1,0.5c0.3,0.3,0.5,0.7,0.5,1.1c0,0.4-0.2,0.8-0.5,1.1
			C38.8,21,38.4,21.1,38,21.1z"/>
		<path class="st2" d="M53,28.3c-1.3,0-2.4-0.3-3.3-0.8s-1.6-1.2-2.1-2c-0.5-0.8-0.7-1.8-0.7-2.8v-1.3h2v1.2c0,1.2,0.4,2.1,1.2,2.8
			c0.8,0.7,1.7,1,2.9,1c0.7,0,1.3-0.2,1.9-0.5c0.6-0.3,1-0.7,1.3-1.2c0.3-0.5,0.5-1.1,0.5-1.7v-0.1c0-1-0.3-1.8-1-2.4
			c-0.6-0.6-1.4-0.9-2.4-0.9H51v-2.8l5.5-3.5v-0.3H47v-1.9h11.2v3.1l-5.5,3.5v0.3h1c0.8,0,1.6,0.2,2.4,0.6s1.4,0.9,1.8,1.6
			c0.5,0.7,0.7,1.6,0.7,2.6v0.4c0,1-0.2,1.8-0.7,2.6c-0.5,0.8-1.2,1.4-2,1.8C55,28.1,54.1,28.3,53,28.3z"/>
	</g>
	<g class="st1">
		<path class="st2" d="M112.6,29.7v-2.3h1.7V11.7h-1.7V9.4h8.2c2,0,3.4,0.5,4.5,1.5c1,1,1.5,2.3,1.5,3.8V15c0,1.1-0.3,2-1,2.8
			s-1.5,1.3-2.4,1.5v0.3c1,0.3,1.8,0.8,2.4,1.6c0.7,0.8,1,1.7,1,2.8v0.3c0,1.5-0.5,2.8-1.5,3.8s-2.5,1.5-4.5,1.5H112.6z M116.7,18.4
			h3.9c1.2,0,2.1-0.3,2.8-0.9c0.7-0.6,1-1.4,1-2.5v-0.2c0-1-0.4-1.8-1.1-2.3s-1.6-0.9-2.8-0.9h-3.9V18.4z M116.7,27.4h3.9
			c1.1,0,2.1-0.3,2.8-0.9s1.1-1.4,1.1-2.4V24c0-1-0.3-1.8-1-2.5c-0.7-0.6-1.6-0.9-2.8-0.9h-3.9V27.4z"/>
		<path class="st2" d="M131.4,29.7V9.4h12.3v2.3h-9.9v6.7h9.7v2.3h-9.7v6.8h10v2.3H131.4z"/>
		<path class="st2" d="M148.5,29.7V9.4h4.9l5.9,19.3h0.3V9.4h2.4v20.3h-4.9l-5.9-19.3H151v19.3H148.5z"/>
		<path class="st2" d="M166.9,29.7V9.4h12.3v2.3h-9.9v6.7h9.7v2.3h-9.7v6.8h10v2.3H166.9z"/>
		<path class="st2" d="M184.7,29.7V9.4h12.5v2.3h-10v6.7h9.9v2.3h-9.9v9H184.7z"/>
		<path class="st2" d="M202.1,29.7v-2.3h5.2V11.7h-5.2V9.4H215v2.3h-5.2v15.8h5.2v2.3H202.1z"/>
		<path class="st2" d="M226.4,30.1c-2.2,0-4-0.7-5.2-2.1s-1.9-3.5-1.9-6.2v-4.5c0-2.6,0.6-4.6,1.9-6.1c1.3-1.5,3-2.2,5.2-2.2
			c1.5,0,2.9,0.3,3.9,1s1.9,1.5,2.4,2.7c0.5,1.1,0.8,2.4,0.8,3.7v0.3h-2.4v-0.3c0-0.9-0.2-1.7-0.5-2.5c-0.3-0.8-0.8-1.4-1.5-1.9
			s-1.6-0.7-2.7-0.7c-1.6,0-2.7,0.6-3.5,1.7c-0.8,1.1-1.2,2.6-1.2,4.5v4.2c0,2,0.4,3.5,1.2,4.6c0.8,1.1,2,1.6,3.5,1.6
			c1.1,0,2-0.2,2.7-0.7s1.2-1.1,1.5-1.9s0.5-1.6,0.5-2.5v-0.3h2.4v0.3c0,1.4-0.3,2.6-0.8,3.7c-0.5,1.1-1.3,2-2.4,2.7
			S227.9,30.1,226.4,30.1z"/>
		<path class="st2" d="M237.6,29.7v-2.3h5.2V11.7h-5.2V9.4h12.9v2.3h-5.2v15.8h5.2v2.3H237.6z"/>
		<path class="st2" d="M261.8,30.1c-2.2,0-4-0.7-5.2-2.1c-1.3-1.4-1.9-3.5-1.9-6.2v-4.5c0-2.6,0.6-4.6,1.9-6.1
			c1.3-1.5,3-2.2,5.2-2.2c2.2,0,4,0.7,5.2,2.2c1.3,1.5,1.9,3.5,1.9,6.1v4.5c0,2.7-0.6,4.7-1.9,6.2C265.8,29.4,264,30.1,261.8,30.1z
			 M261.8,27.8c1.6,0,2.7-0.5,3.5-1.6c0.8-1.1,1.2-2.6,1.2-4.6v-4.2c0-1.9-0.4-3.4-1.2-4.5c-0.8-1.1-2-1.7-3.5-1.7
			c-1.6,0-2.7,0.6-3.5,1.7c-0.8,1.1-1.2,2.6-1.2,4.5v4.2c0,2,0.4,3.5,1.2,4.6C259,27.3,260.2,27.8,261.8,27.8z"/>
		<path class="st2" d="M279.9,30.1c-1.7,0-3.2-0.3-4.4-1s-2.1-1.5-2.7-2.7s-0.9-2.4-0.9-3.8v-0.9h2.4v0.7c0,1.8,0.5,3.1,1.5,4
			c1,0.9,2.3,1.3,4.1,1.3c1.5,0,2.6-0.3,3.4-1s1.1-1.6,1.1-2.6V24c0-1.1-0.4-1.9-1.2-2.4c-0.8-0.6-2.1-1-3.8-1.2
			c-2-0.3-3.7-0.9-4.9-1.7c-1.2-0.9-1.8-2.2-1.8-3.9v-0.3c0-1.1,0.3-2,0.9-2.8c0.6-0.8,1.4-1.4,2.4-1.9c1-0.5,2.2-0.7,3.5-0.7
			c1.5,0,2.8,0.3,3.9,0.8c1.1,0.6,1.9,1.3,2.5,2.2c0.6,0.9,0.9,1.9,0.9,3v1.2h-2.4v-1c0-0.9-0.2-1.6-0.7-2.2s-1-1-1.8-1.3
			c-0.7-0.3-1.5-0.5-2.4-0.5c-0.7,0-1.4,0.1-2.1,0.4c-0.6,0.3-1.2,0.6-1.6,1.1c-0.4,0.5-0.6,1.1-0.6,1.8v0.2c0,1.1,0.5,1.9,1.4,2.5
			c0.9,0.5,2.3,0.9,4.1,1.2c2.1,0.3,3.7,0.9,4.7,1.9c1,0.9,1.5,2.2,1.5,3.7v0.3c0,1.8-0.6,3.2-1.8,4.3
			C283.9,29.6,282.2,30.1,279.9,30.1z"/>
	</g>
</g>
</svg>
