<?xml version="1.0" encoding="utf-8"?>
<!-- Generator: Adobe Illustrator 25.2.0, SVG Export Plug-In . SVG Version: 6.00 Build 0)  -->
<svg version="1.1" id="Capa_1" xmlns="http://www.w3.org/2000/svg" xmlns:xlink="http://www.w3.org/1999/xlink" x="0px" y="0px"
	 viewBox="0 0 254.3 41.2" style="enable-background:new 0 0 254.3 41.2;" xml:space="preserve">
<style type="text/css">
	.st0{fill:none;stroke:#00FFFF;stroke-width:2;stroke-miterlimit:10;}
	.st1{enable-background:new    ;}
	.st2{fill:#00FFFF;}
</style>
<g id="Layer_1">
	<ellipse class="st0" cx="45.1" cy="20.6" rx="44.1" ry="19.6"/>
	<ellipse class="st0" cx="45.1" cy="20.6" rx="31.8" ry="19.6"/>
	<circle class="st0" cx="45.1" cy="20.6" r="19.6"/>
	<line class="st0" x1="89.2" y1="20.6" x2="64.7" y2="20.6"/>
	<line class="st0" x1="25.5" y1="20.6" x2="1" y2="20.6"/>
	<g class="st1">
		<path class="st2" d="M38,28.3c-1.8,0-3.3-0.6-4.3-1.8c-1-1.2-1.6-2.9-1.6-5.1v-3.7c0-2.2,0.5-3.8,1.6-5.1c1-1.2,2.5-1.8,4.3-1.8
			c1.9,0,3.3,0.6,4.3,1.8s1.6,2.9,1.6,5.1v3.7c0,2.2-0.5,3.9-1.6,5.1S39.9,28.3,38,28.3z M38,26.5c1.3,0,2.3-0.5,2.9-1.4
			c0.6-0.9,1-2.2,1-3.8v-3.5c0-1.5-0.3-2.8-1-3.7c-0.6-1-1.6-1.4-2.9-1.4c-1.3,0-2.3,0.5-2.9,1.4c-0.6,1-1,2.2-1,3.7v3.5
			c0,1.6,0.3,2.9,1,3.8C35.7,26,36.7,26.5,38,26.5z M38,21.1c-0.4,0-0.8-0.2-1.1-0.5c-0.3-0.3-0.5-0.7-0.5-1.1
			c0-0.4,0.2-0.8,0.5-1.1c0.3-0.3,0.7-0.5,1.1-0.5c0.4,0,0.8,0.2,1.1,0.5c0.3,0.3,0.5,0.7,0.5,1.1c0,0.4-0.2,0.8-0.5,1.1
			C38.8,21,38.4,21.1,38,21.1z"/>
		<path class="st2" d="M53,28.3c-1.3,0-2.4-0.2-3.3-0.7c-0.9-0.5-1.6-1.2-2.1-2c-0.5-0.9-0.7-1.8-0.7-2.9v-0.7h2v0.5
			c0,1.3,0.4,2.3,1.1,3s1.7,1,2.9,1c0.9,0,1.6-0.2,2.2-0.6c0.6-0.4,1-0.9,1.3-1.6s0.4-1.3,0.4-2.1V22c0-0.7-0.1-1.3-0.4-1.8
			c-0.3-0.5-0.7-1-1.2-1.3c-0.5-0.3-1.1-0.5-1.8-0.5c-0.7,0-1.2,0.2-1.7,0.5c-0.4,0.3-0.7,0.7-0.8,1.1h-3.8v-8.9h10.5v1.9h-8.5v6
			h0.3c0.3-0.7,0.8-1.2,1.5-1.7c0.7-0.5,1.5-0.7,2.6-0.7c1,0,1.9,0.2,2.7,0.7s1.4,1.1,1.9,1.9c0.5,0.8,0.7,1.7,0.7,2.8v0.4
			c0,1.1-0.2,2-0.7,2.9c-0.4,0.9-1.1,1.6-2,2.2C55.3,28,54.3,28.3,53,28.3z"/>
	</g>
	<g class="st1">
		<path class="st2" d="M119.9,30.1c-2.2,0-4-0.7-5.2-2.1c-1.3-1.4-1.9-3.5-1.9-6.2v-4.5c0-2.6,0.6-4.6,1.9-6.1
			c1.3-1.5,3-2.2,5.2-2.2c1.5,0,2.9,0.3,3.9,1c1.1,0.7,1.9,1.5,2.4,2.7c0.5,1.1,0.8,2.4,0.8,3.7v0.3h-2.4v-0.3
			c0-0.9-0.2-1.7-0.5-2.5c-0.3-0.8-0.8-1.4-1.5-1.9c-0.7-0.5-1.6-0.7-2.7-0.7c-1.6,0-2.7,0.6-3.5,1.7c-0.8,1.1-1.2,2.6-1.2,4.5v4.2
			c0,2,0.4,3.5,1.2,4.6c0.8,1.1,2,1.6,3.5,1.6c1.1,0,2-0.2,2.7-0.7c0.7-0.5,1.2-1.1,1.5-1.9c0.3-0.8,0.5-1.6,0.5-2.5v-0.3h2.4v0.3
			c0,1.4-0.3,2.6-0.8,3.7c-0.5,1.1-1.3,2-2.4,2.7C122.7,29.8,121.4,30.1,119.9,30.1z"/>
		<path class="st2" d="M137.5,30.1c-2.2,0-4-0.7-5.2-2.1c-1.3-1.4-1.9-3.5-1.9-6.2v-4.5c0-2.6,0.6-4.6,1.9-6.1
			c1.3-1.5,3-2.2,5.2-2.2c2.2,0,4,0.7,5.2,2.2c1.3,1.5,1.9,3.5,1.9,6.1v4.5c0,2.7-0.6,4.7-1.9,6.2S139.8,30.1,137.5,30.1z
			 M137.5,27.8c1.6,0,2.7-0.5,3.5-1.6c0.8-1.1,1.2-2.6,1.2-4.6v-4.2c0-1.9-0.4-3.4-1.2-4.5c-0.8-1.1-2-1.7-3.5-1.7s-2.7,0.6-3.5,1.7
			c-0.8,1.1-1.2,2.6-1.2,4.5v4.2c0,2,0.4,3.5,1.2,4.6C134.8,27.3,136,27.8,137.5,27.8z"/>
		<path class="st2" d="M148.5,29.7V9.4h4.9l5.9,19.3h0.3V9.4h2.4v20.3h-4.9l-5.9-19.3H151v19.3H148.5z"/>
		<path class="st2" d="M171.8,29.7v-18h-5.9V9.4h14.3v2.3h-5.9v18H171.8z"/>
		<path class="st2" d="M182.3,29.7l6.1-20.3h4.6l6.1,20.3h-2.6l-1.5-5h-8.7l-1.5,5H182.3z M187.1,22.4h7.4l-3.5-11.9h-0.3
			L187.1,22.4z"/>
		<path class="st2" d="M208.6,30.1c-2.2,0-4-0.7-5.2-2.1s-1.9-3.5-1.9-6.2v-4.5c0-2.6,0.6-4.6,1.9-6.1c1.3-1.5,3-2.2,5.2-2.2
			c1.5,0,2.9,0.3,3.9,1s1.9,1.5,2.4,2.7c0.5,1.1,0.8,2.4,0.8,3.7v0.3h-2.4v-0.3c0-0.9-0.2-1.7-0.5-2.5c-0.3-0.8-0.8-1.4-1.5-1.9
			s-1.6-0.7-2.7-0.7c-1.6,0-2.7,0.6-3.5,1.7c-0.8,1.1-1.2,2.6-1.2,4.5v4.2c0,2,0.4,3.5,1.2,4.6c0.8,1.1,2,1.6,3.5,1.6
			c1.1,0,2-0.2,2.7-0.7s1.2-1.1,1.5-1.9s0.5-1.6,0.5-2.5v-0.3h2.4v0.3c0,1.4-0.3,2.6-0.8,3.7c-0.5,1.1-1.3,2-2.4,2.7
			S210.2,30.1,208.6,30.1z"/>
		<path class="st2" d="M225,29.7v-18h-5.9V9.4h14.3v2.3h-5.9v18H225z"/>
		<path class="st2" d="M244,30.1c-2.2,0-4-0.7-5.2-2.1c-1.3-1.4-1.9-3.5-1.9-6.2v-4.5c0-2.6,0.6-4.6,1.9-6.1c1.3-1.5,3-2.2,5.2-2.2
			c2.2,0,4,0.7,5.2,2.2c1.3,1.5,1.9,3.5,1.9,6.1v4.5c0,2.7-0.6,4.7-1.9,6.2C248,29.4,246.3,30.1,244,30.1z M244,27.8
			c1.6,0,2.7-0.5,3.5-1.6c0.8-1.1,1.2-2.6,1.2-4.6v-4.2c0-1.9-0.4-3.4-1.2-4.5c-0.8-1.1-2-1.7-3.5-1.7c-1.6,0-2.7,0.6-3.5,1.7
			c-0.8,1.1-1.2,2.6-1.2,4.5v4.2c0,2,0.4,3.5,1.2,4.6C241.3,27.3,242.4,27.8,244,27.8z"/>
	</g>
</g>
</svg>
