<?xml version="1.0" encoding="utf-8"?>
<!-- Generator: Adobe Illustrator 25.2.0, SVG Export Plug-In . SVG Version: 6.00 Build 0)  -->
<svg version="1.1" id="Capa_1" xmlns="http://www.w3.org/2000/svg" xmlns:xlink="http://www.w3.org/1999/xlink" x="0px" y="0px"
	 viewBox="0 0 272.7 41.2" style="enable-background:new 0 0 272.7 41.2;" xml:space="preserve">
<style type="text/css">
	.st0{fill:none;stroke:#00FFFF;stroke-width:2;stroke-miterlimit:10;}
	.st1{enable-background:new    ;}
	.st2{fill:#00FFFF;}
</style>
<g id="Layer_1">
	<ellipse class="st0" cx="45.1" cy="20.6" rx="44.1" ry="19.6"/>
	<ellipse class="st0" cx="45.1" cy="20.6" rx="31.8" ry="19.6"/>
	<circle class="st0" cx="45.1" cy="20.6" r="19.6"/>
	<line class="st0" x1="89.2" y1="20.6" x2="64.7" y2="20.6"/>
	<line class="st0" x1="25.5" y1="20.6" x2="1" y2="20.6"/>
	<g class="st1">
		<path class="st2" d="M119.9,30.1c-2.2,0-4-0.7-5.2-2.1c-1.3-1.4-1.9-3.5-1.9-6.2v-4.5c0-2.6,0.6-4.6,1.9-6.1s3-2.2,5.2-2.2
			c1.5,0,2.9,0.3,3.9,1c1.1,0.7,1.9,1.5,2.4,2.7c0.5,1.1,0.8,2.4,0.8,3.7v0.3h-2.4v-0.3c0-0.9-0.2-1.7-0.5-2.5s-0.8-1.4-1.5-1.9
			s-1.6-0.7-2.7-0.7c-1.6,0-2.7,0.6-3.5,1.7s-1.2,2.6-1.2,4.5v4.2c0,2,0.4,3.5,1.2,4.6c0.8,1.1,2,1.6,3.5,1.6c1.1,0,2-0.2,2.7-0.7
			s1.2-1.1,1.5-1.9s0.5-1.6,0.5-2.5v-0.3h2.4v0.3c0,1.4-0.3,2.6-0.8,3.7s-1.3,2-2.4,2.7C122.7,29.8,121.4,30.1,119.9,30.1z"/>
		<path class="st2" d="M137.5,30.1c-2.2,0-4-0.7-5.2-2.1c-1.3-1.4-1.9-3.5-1.9-6.2v-4.5c0-2.6,0.6-4.6,1.9-6.1
			c1.3-1.5,3-2.2,5.2-2.2s4,0.7,5.2,2.2c1.3,1.5,1.9,3.5,1.9,6.1v4.5c0,2.7-0.6,4.7-1.9,6.2S139.8,30.1,137.5,30.1z M137.5,27.8
			c1.6,0,2.7-0.5,3.5-1.6s1.2-2.6,1.2-4.6v-4.2c0-1.9-0.4-3.4-1.2-4.5s-2-1.7-3.5-1.7s-2.7,0.6-3.5,1.7s-1.2,2.6-1.2,4.5v4.2
			c0,2,0.4,3.5,1.2,4.6S136,27.8,137.5,27.8z"/>
		<path class="st2" d="M147.7,29.7V9.4h4.6l2.7,19.3h0.3L158,9.4h4.6v20.3h-2.3V10.4H160l-2.7,19.3h-4.4l-2.7-19.3H150v19.3
			C150,29.7,147.7,29.7,147.7,29.7z"/>
		<path class="st2" d="M173,30.1c-2.1,0-3.8-0.6-5.1-1.9c-1.2-1.2-1.9-3-1.9-5.4V9.4h2.4v13.5c0,1.6,0.4,2.9,1.2,3.7
			s1.9,1.3,3.4,1.3s2.6-0.4,3.4-1.3s1.1-2.1,1.1-3.7V9.4h2.4v13.5c0,2.3-0.6,4.1-1.9,5.4C176.9,29.5,175.2,30.1,173,30.1z"/>
		<path class="st2" d="M184,29.7V9.4h4.9l5.9,19.3h0.3V9.4h2.4v20.3h-4.9l-5.9-19.3h-0.3v19.3C186.4,29.7,184,29.7,184,29.7z"/>
		<path class="st2" d="M202.1,29.7v-2.3h5.2V11.7h-5.2V9.4H215v2.3h-5.2v15.8h5.2v2.3L202.1,29.7L202.1,29.7z"/>
		<path class="st2" d="M219.5,29.7v-2.3h1.7V11.7h-1.7V9.4h6.7c2.5,0,4.3,0.6,5.5,1.8s1.8,3.1,1.8,5.7v5.2c0,2.6-0.6,4.5-1.8,5.7
			s-3,1.8-5.5,1.8h-6.7V29.7z M223.7,27.4h2.1c1.2,0,2.2-0.2,2.9-0.5c0.8-0.3,1.3-0.9,1.7-1.7c0.4-0.8,0.6-1.9,0.6-3.3V17
			c0-1.4-0.2-2.5-0.6-3.3s-0.9-1.3-1.7-1.7s-1.7-0.5-2.9-0.5h-2.1V27.4z"/>
		<path class="st2" d="M235.6,29.7l6.1-20.3h4.6l6.1,20.3h-2.6l-1.5-5h-8.7l-1.5,5H235.6z M240.3,22.4h7.4l-3.5-11.9h-0.3
			L240.3,22.4z"/>
		<path class="st2" d="M255,29.7v-2.3h1.7V11.7H255V9.4h6.7c2.5,0,4.3,0.6,5.5,1.8s1.8,3.1,1.8,5.7v5.2c0,2.6-0.6,4.5-1.8,5.7
			s-3,1.8-5.5,1.8H255V29.7z M259.2,27.4h2.1c1.2,0,2.2-0.2,2.9-0.5c0.8-0.3,1.3-0.9,1.7-1.7c0.4-0.8,0.6-1.9,0.6-3.3V17
			c0-1.4-0.2-2.5-0.6-3.3s-0.9-1.3-1.7-1.7s-1.7-0.5-2.9-0.5h-2.1V27.4z"/>
	</g>
</g>
<g class="st1">
	<path class="st2" d="M37.1,28.5c-1.9,0-3.3-0.6-4.4-1.8s-1.6-2.9-1.6-5.2v-3.8c0-2.2,0.5-3.9,1.6-5.1c1.1-1.2,2.5-1.8,4.4-1.8
		c1.9,0,3.4,0.6,4.4,1.8c1.1,1.2,1.6,2.9,1.6,5.1v3.8c0,2.3-0.5,4-1.6,5.2S39,28.5,37.1,28.5z M37.1,26.6c1.3,0,2.3-0.5,3-1.4
		s1-2.2,1-3.9v-3.5c0-1.6-0.3-2.8-1-3.8c-0.7-1-1.6-1.5-3-1.5c-1.3,0-2.3,0.5-3,1.5c-0.7,1-1,2.2-1,3.8v3.5c0,1.7,0.3,3,1,3.9
		S35.8,26.6,37.1,26.6z M37.1,21.2c-0.4,0-0.8-0.2-1.1-0.5s-0.5-0.7-0.5-1.1c0-0.4,0.2-0.8,0.5-1.1c0.3-0.3,0.7-0.5,1.1-0.5
		c0.4,0,0.8,0.2,1.1,0.5c0.3,0.3,0.5,0.7,0.5,1.1c0,0.4-0.2,0.8-0.5,1.1S37.5,21.2,37.1,21.2z"/>
	<path class="st2" d="M52.3,28.5c-1.3,0-2.4-0.3-3.3-0.8c-0.9-0.5-1.6-1.2-2.1-2.1c-0.5-0.9-0.7-1.8-0.7-2.8v-1.3h2.1v1.2
		c0,1.2,0.4,2.2,1.2,2.9s1.8,1,2.9,1c0.7,0,1.4-0.2,1.9-0.5c0.6-0.3,1-0.7,1.4-1.3c0.3-0.5,0.5-1.1,0.5-1.8v-0.1c0-1-0.3-1.8-1-2.4
		c-0.7-0.6-1.5-0.9-2.4-0.9h-2.3v-2.8l5.6-3.6V13h-9.7v-1.9h11.4v3.1l-5.6,3.6v0.3h1c0.9,0,1.7,0.2,2.4,0.6c0.8,0.4,1.4,0.9,1.9,1.6
		s0.7,1.6,0.7,2.6v0.4c0,1-0.3,1.9-0.8,2.6s-1.2,1.4-2.1,1.9S53.4,28.5,52.3,28.5z"/>
</g>
</svg>
