<?xml version="1.0" encoding="utf-8"?>
<!-- Generator: Adobe Illustrator 25.2.0, SVG Export Plug-In . SVG Version: 6.00 Build 0)  -->
<svg version="1.1" id="Capa_1" xmlns="http://www.w3.org/2000/svg" xmlns:xlink="http://www.w3.org/1999/xlink" x="0px" y="0px"
	 viewBox="0 0 360.2 41.2" style="enable-background:new 0 0 360.2 41.2;" xml:space="preserve">
<style type="text/css">
	.st0{fill:none;stroke:#00FFFF;stroke-width:2;stroke-miterlimit:10;}
	.st1{enable-background:new    ;}
	.st2{fill:#00FFFF;}
</style>
<g id="Layer_1">
	<ellipse class="st0" cx="45.1" cy="20.6" rx="44.1" ry="19.6"/>
	<ellipse class="st0" cx="45.1" cy="20.6" rx="31.8" ry="19.6"/>
	<circle class="st0" cx="45.1" cy="20.6" r="19.6"/>
	<line class="st0" x1="89.2" y1="20.6" x2="64.7" y2="20.6"/>
	<line class="st0" x1="25.5" y1="20.6" x2="1" y2="20.6"/>
	<g class="st1">
		<path class="st2" d="M38,28.3c-1.8,0-3.3-0.6-4.3-1.8c-1-1.2-1.6-2.9-1.6-5.1v-3.7c0-2.2,0.5-3.8,1.6-5.1c1-1.2,2.5-1.8,4.3-1.8
			c1.9,0,3.3,0.6,4.3,1.8s1.6,2.9,1.6,5.1v3.7c0,2.2-0.5,3.9-1.6,5.1S39.9,28.3,38,28.3z M38,26.5c1.3,0,2.3-0.5,2.9-1.4
			c0.6-0.9,1-2.2,1-3.8v-3.5c0-1.5-0.3-2.8-1-3.7c-0.6-1-1.6-1.4-2.9-1.4c-1.3,0-2.3,0.5-2.9,1.4c-0.6,1-1,2.2-1,3.7v3.5
			c0,1.6,0.3,2.9,1,3.8C35.7,26,36.7,26.5,38,26.5z M38,21.1c-0.4,0-0.8-0.2-1.1-0.5c-0.3-0.3-0.5-0.7-0.5-1.1
			c0-0.4,0.2-0.8,0.5-1.1c0.3-0.3,0.7-0.5,1.1-0.5c0.4,0,0.8,0.2,1.1,0.5c0.3,0.3,0.5,0.7,0.5,1.1c0,0.4-0.2,0.8-0.5,1.1
			C38.8,21,38.4,21.1,38,21.1z"/>
		<path class="st2" d="M47,28v-2.9c0-1,0.2-1.9,0.7-2.5s1.1-1.2,1.9-1.6c0.8-0.4,1.8-0.8,2.9-1c1.4-0.3,2.5-0.8,3.1-1.4
			c0.6-0.6,0.9-1.3,0.9-2.2v-0.1c0-0.6-0.1-1.1-0.4-1.7s-0.7-1-1.2-1.3c-0.6-0.3-1.3-0.5-2.1-0.5c-1.2,0-2.2,0.4-2.9,1.1
			c-0.7,0.8-1,1.8-1,3v1.1h-2v-1.2c0-1,0.2-2,0.7-2.9c0.4-0.9,1.1-1.6,2-2.2c0.9-0.6,2-0.8,3.2-0.8c1.3,0,2.4,0.3,3.2,0.8
			c0.8,0.5,1.5,1.1,1.9,1.9c0.4,0.8,0.6,1.6,0.6,2.5v0.4c0,1.3-0.4,2.4-1.2,3.3c-0.8,0.9-2.1,1.6-3.8,1.9C52,22,50.9,22.4,50.1,23
			c-0.7,0.6-1.1,1.4-1.1,2.4v0.7h9.4V28H47z"/>
	</g>
	<g class="st1">
		<path class="st2" d="M113,29.7V9.4h4.9l5.9,19.3h0.3V9.4h2.4v20.3h-4.9l-5.9-19.3h-0.3v19.3H113z"/>
		<path class="st2" d="M137.5,30.1c-2.1,0-3.8-0.6-5.1-1.9c-1.2-1.2-1.9-3-1.9-5.4V9.4h2.4v13.5c0,1.6,0.4,2.9,1.2,3.7
			s1.9,1.3,3.4,1.3c1.5,0,2.6-0.4,3.4-1.3s1.1-2.1,1.1-3.7V9.4h2.4v13.5c0,2.3-0.6,4.1-1.9,5.4C141.4,29.5,139.7,30.1,137.5,30.1z"
			/>
		<path class="st2" d="M149.1,29.7V9.4h12.3v2.3h-9.9v6.7h9.7v2.3h-9.7v6.8h10v2.3H149.1z"/>
		<path class="st2" d="M173.4,30.1c-1.7,0-3.2-0.3-4.4-1c-1.2-0.6-2.1-1.5-2.7-2.7c-0.6-1.1-0.9-2.4-0.9-3.8v-0.9h2.4v0.7
			c0,1.8,0.5,3.1,1.5,4c1,0.9,2.3,1.3,4.1,1.3c1.5,0,2.6-0.3,3.4-1c0.8-0.7,1.1-1.6,1.1-2.6V24c0-1.1-0.4-1.9-1.2-2.4
			c-0.8-0.6-2.1-1-3.8-1.2c-2-0.3-3.6-0.9-4.9-1.7c-1.2-0.9-1.8-2.2-1.8-3.9v-0.3c0-1.1,0.3-2,0.9-2.8c0.6-0.8,1.4-1.4,2.4-1.9
			c1-0.5,2.2-0.7,3.5-0.7c1.5,0,2.8,0.3,3.9,0.8c1.1,0.6,1.9,1.3,2.5,2.2c0.6,0.9,0.9,1.9,0.9,3v1.2h-2.4v-1c0-0.9-0.2-1.6-0.7-2.2
			c-0.4-0.6-1-1-1.8-1.3c-0.7-0.3-1.5-0.5-2.4-0.5c-0.7,0-1.4,0.1-2.1,0.4c-0.6,0.3-1.2,0.6-1.6,1.1c-0.4,0.5-0.6,1.1-0.6,1.8v0.2
			c0,1.1,0.5,1.9,1.4,2.5c0.9,0.5,2.3,0.9,4.1,1.2c2.1,0.3,3.7,0.9,4.7,1.9c1,0.9,1.5,2.2,1.5,3.7v0.3c0,1.8-0.6,3.2-1.8,4.3
			C177.4,29.6,175.7,30.1,173.4,30.1z"/>
		<path class="st2" d="M189.6,29.7v-18h-5.9V9.4h14.3v2.3H192v18H189.6z"/>
		<path class="st2" d="M202.1,29.7V9.4h7.2c1.4,0,2.5,0.3,3.5,0.8c0.9,0.5,1.6,1.2,2.1,2c0.5,0.8,0.7,1.7,0.7,2.7v0.9
			c0,0.8-0.2,1.5-0.6,2.3c-0.4,0.8-1.1,1.3-1.9,1.7v0.3c0.6,0.1,1,0.3,1.4,0.7c0.3,0.4,0.5,0.9,0.5,1.6v7.3h-2.4v-6.8
			c0-0.5-0.1-0.9-0.3-1.2c-0.2-0.3-0.6-0.4-1.2-0.4h-6.3v8.4H202.1z M204.5,19.1h4.5c2.7,0,4.1-1.2,4.1-3.5v-0.5c0-1-0.3-1.9-1-2.5
			c-0.7-0.6-1.7-0.9-3.1-0.9h-4.5V19.1z"/>
		<path class="st2" d="M217.8,29.7L224,9.4h4.6l6.1,20.3h-2.6l-1.5-5h-8.7l-1.5,5H217.8z M222.6,22.4h7.4l-3.5-11.9h-0.3L222.6,22.4
			z"/>
		<path class="st2" d="M244.4,30.1c-1.7,0-3.2-0.3-4.4-1s-2.1-1.5-2.7-2.7s-0.9-2.4-0.9-3.8v-0.9h2.4v0.7c0,1.8,0.5,3.1,1.5,4
			c1,0.9,2.3,1.3,4.1,1.3c1.5,0,2.6-0.3,3.4-1s1.1-1.6,1.1-2.6V24c0-1.1-0.4-1.9-1.2-2.4c-0.8-0.6-2.1-1-3.8-1.2
			c-2-0.3-3.7-0.9-4.9-1.7c-1.2-0.9-1.8-2.2-1.8-3.9v-0.3c0-1.1,0.3-2,0.9-2.8c0.6-0.8,1.4-1.4,2.4-1.9c1-0.5,2.2-0.7,3.5-0.7
			c1.5,0,2.8,0.3,3.9,0.8c1.1,0.6,1.9,1.3,2.5,2.2c0.6,0.9,0.9,1.9,0.9,3v1.2h-2.4v-1c0-0.9-0.2-1.6-0.7-2.2s-1-1-1.8-1.3
			c-0.7-0.3-1.5-0.5-2.4-0.5c-0.7,0-1.4,0.1-2.1,0.4c-0.6,0.3-1.2,0.6-1.6,1.1c-0.4,0.5-0.6,1.1-0.6,1.8v0.2c0,1.1,0.5,1.9,1.4,2.5
			c0.9,0.5,2.3,0.9,4.1,1.2c2.1,0.3,3.7,0.9,4.7,1.9c1,0.9,1.5,2.2,1.5,3.7v0.3c0,1.8-0.6,3.2-1.8,4.3
			C248.4,29.6,246.7,30.1,244.4,30.1z"/>
		<path class="st2" d="M279.6,30.1c-2.2,0-4-0.7-5.2-2.1s-1.9-3.5-1.9-6.2v-4.5c0-2.6,0.6-4.6,1.9-6.1c1.3-1.5,3-2.2,5.2-2.2
			c1.5,0,2.9,0.3,3.9,1s1.9,1.5,2.4,2.7c0.5,1.1,0.8,2.4,0.8,3.7v0.3h-2.4v-0.3c0-0.9-0.2-1.7-0.5-2.5c-0.3-0.8-0.8-1.4-1.5-1.9
			s-1.6-0.7-2.7-0.7c-1.6,0-2.7,0.6-3.5,1.7c-0.8,1.1-1.2,2.6-1.2,4.5v4.2c0,2,0.4,3.5,1.2,4.6c0.8,1.1,2,1.6,3.5,1.6
			c1.1,0,2-0.2,2.7-0.7s1.2-1.1,1.5-1.9s0.5-1.6,0.5-2.5v-0.3h2.4v0.3c0,1.4-0.3,2.6-0.8,3.7c-0.5,1.1-1.3,2-2.4,2.7
			S281.2,30.1,279.6,30.1z"/>
		<path class="st2" d="M288.8,29.7L295,9.4h4.6l6.1,20.3h-2.6l-1.5-5h-8.7l-1.5,5H288.8z M293.6,22.4h7.4l-3.5-11.9h-0.3L293.6,22.4
			z"/>
		<path class="st2" d="M314.7,30.1c-2,0-3.5-0.6-4.7-1.7c-1.2-1.1-1.7-2.7-1.7-4.8V22h2.4v1.6c0,1.3,0.3,2.3,1,3.1s1.7,1.2,3,1.2
			c1.4,0,2.3-0.4,2.8-1.2c0.5-0.8,0.8-1.8,0.8-3.1V11.7h-2.1V9.4h6.3v2.3h-1.7v11.9c0,2.1-0.5,3.7-1.6,4.8
			C318.2,29.5,316.7,30.1,314.7,30.1z"/>
		<path class="st2" d="M324.3,29.7l6.1-20.3h4.6l6.1,20.3h-2.6l-1.5-5h-8.7l-1.5,5H324.3z M329.1,22.4h7.4l-3.5-11.9h-0.3
			L329.1,22.4z"/>
		<path class="st2" d="M350.9,30.1c-1.7,0-3.2-0.3-4.4-1c-1.2-0.6-2.1-1.5-2.7-2.7s-0.9-2.4-0.9-3.8v-0.9h2.4v0.7
			c0,1.8,0.5,3.1,1.5,4c1,0.9,2.3,1.3,4.1,1.3c1.5,0,2.6-0.3,3.4-1s1.1-1.6,1.1-2.6V24c0-1.1-0.4-1.9-1.2-2.4
			c-0.8-0.6-2.1-1-3.8-1.2c-2-0.3-3.7-0.9-4.9-1.7s-1.8-2.2-1.8-3.9v-0.3c0-1.1,0.3-2,0.9-2.8c0.6-0.8,1.4-1.4,2.4-1.9
			c1-0.5,2.2-0.7,3.5-0.7c1.5,0,2.8,0.3,3.9,0.8c1.1,0.6,1.9,1.3,2.5,2.2c0.6,0.9,0.9,1.9,0.9,3v1.2h-2.4v-1c0-0.9-0.2-1.6-0.7-2.2
			c-0.4-0.6-1-1-1.8-1.3s-1.5-0.5-2.4-0.5c-0.7,0-1.4,0.1-2.1,0.4c-0.6,0.3-1.2,0.6-1.6,1.1s-0.6,1.1-0.6,1.8v0.2
			c0,1.1,0.5,1.9,1.4,2.5c0.9,0.5,2.3,0.9,4.1,1.2c2.1,0.3,3.7,0.9,4.7,1.9c1,0.9,1.5,2.2,1.5,3.7v0.3c0,1.8-0.6,3.2-1.8,4.3
			C354.9,29.6,353.2,30.1,350.9,30.1z"/>
	</g>
</g>
</svg>
