<?xml version="1.0" encoding="utf-8"?>
<!-- Generator: Adobe Illustrator 25.2.0, SVG Export Plug-In . SVG Version: 6.00 Build 0)  -->
<svg version="1.1" id="Capa_1" xmlns="http://www.w3.org/2000/svg" xmlns:xlink="http://www.w3.org/1999/xlink" x="0px" y="0px"
	 viewBox="0 0 272.7 41.2" style="enable-background:new 0 0 272.7 41.2;" xml:space="preserve">
<style type="text/css">
	.st0{fill:none;stroke:#00FFFF;stroke-width:2;stroke-miterlimit:10;}
	.st1{enable-background:new    ;}
	.st2{fill:#00FFFF;}
</style>
<g id="Layer_1">
	<ellipse class="st0" cx="45.1" cy="20.6" rx="44.1" ry="19.6"/>
	<ellipse class="st0" cx="45.1" cy="20.6" rx="31.8" ry="19.6"/>
	<circle class="st0" cx="45.1" cy="20.6" r="19.6"/>
	<line class="st0" x1="89.2" y1="20.6" x2="64.7" y2="20.6"/>
	<line class="st0" x1="25.5" y1="20.6" x2="1" y2="20.6"/>
	<g class="st1">
		<path class="st2" d="M38,28.3c-1.8,0-3.3-0.6-4.3-1.8c-1-1.2-1.6-2.9-1.6-5.1v-3.7c0-2.2,0.5-3.8,1.6-5.1c1-1.2,2.5-1.8,4.3-1.8
			c1.9,0,3.3,0.6,4.3,1.8s1.6,2.9,1.6,5.1v3.7c0,2.2-0.5,3.9-1.6,5.1S39.9,28.3,38,28.3z M38,26.5c1.3,0,2.3-0.5,2.9-1.4
			c0.6-0.9,1-2.2,1-3.8v-3.5c0-1.5-0.3-2.8-1-3.7c-0.6-1-1.6-1.4-2.9-1.4c-1.3,0-2.3,0.5-2.9,1.4c-0.6,1-1,2.2-1,3.7v3.5
			c0,1.6,0.3,2.9,1,3.8C35.7,26,36.7,26.5,38,26.5z M38,21.1c-0.4,0-0.8-0.2-1.1-0.5c-0.3-0.3-0.5-0.7-0.5-1.1
			c0-0.4,0.2-0.8,0.5-1.1c0.3-0.3,0.7-0.5,1.1-0.5c0.4,0,0.8,0.2,1.1,0.5c0.3,0.3,0.5,0.7,0.5,1.1c0,0.4-0.2,0.8-0.5,1.1
			C38.8,21,38.4,21.1,38,21.1z"/>
		<path class="st2" d="M54.3,28v-3.2h-7.8V22l5.9-10.8h3.9V23h2.6v1.9h-2.6V28H54.3z M48.3,23h6V12.1H54l-5.8,10.6V23z"/>
	</g>
	<g class="st1">
		<path class="st2" d="M119.9,30.1c-2.2,0-4-0.7-5.2-2.1c-1.3-1.4-1.9-3.5-1.9-6.2v-4.5c0-2.6,0.6-4.6,1.9-6.1
			c1.3-1.5,3-2.2,5.2-2.2c1.5,0,2.9,0.3,3.9,1c1.1,0.7,1.9,1.5,2.4,2.7c0.5,1.1,0.8,2.4,0.8,3.7v0.3h-2.4v-0.3
			c0-0.9-0.2-1.7-0.5-2.5c-0.3-0.8-0.8-1.4-1.5-1.9c-0.7-0.5-1.6-0.7-2.7-0.7c-1.6,0-2.7,0.6-3.5,1.7c-0.8,1.1-1.2,2.6-1.2,4.5v4.2
			c0,2,0.4,3.5,1.2,4.6c0.8,1.1,2,1.6,3.5,1.6c1.1,0,2-0.2,2.7-0.7c0.7-0.5,1.2-1.1,1.5-1.9c0.3-0.8,0.5-1.6,0.5-2.5v-0.3h2.4v0.3
			c0,1.4-0.3,2.6-0.8,3.7c-0.5,1.1-1.3,2-2.4,2.7C122.7,29.8,121.4,30.1,119.9,30.1z"/>
		<path class="st2" d="M137.5,30.1c-2.2,0-4-0.7-5.2-2.1c-1.3-1.4-1.9-3.5-1.9-6.2v-4.5c0-2.6,0.6-4.6,1.9-6.1
			c1.3-1.5,3-2.2,5.2-2.2c2.2,0,4,0.7,5.2,2.2c1.3,1.5,1.9,3.5,1.9,6.1v4.5c0,2.7-0.6,4.7-1.9,6.2S139.8,30.1,137.5,30.1z
			 M137.5,27.8c1.6,0,2.7-0.5,3.5-1.6c0.8-1.1,1.2-2.6,1.2-4.6v-4.2c0-1.9-0.4-3.4-1.2-4.5c-0.8-1.1-2-1.7-3.5-1.7s-2.7,0.6-3.5,1.7
			c-0.8,1.1-1.2,2.6-1.2,4.5v4.2c0,2,0.4,3.5,1.2,4.6C134.8,27.3,136,27.8,137.5,27.8z"/>
		<path class="st2" d="M147.7,29.7V9.4h4.6l2.7,19.3h0.3l2.7-19.3h4.6v20.3h-2.3V10.4h-0.3l-2.7,19.3h-4.4l-2.7-19.3H150v19.3H147.7
			z"/>
		<path class="st2" d="M173,30.1c-2.1,0-3.8-0.6-5.1-1.9c-1.2-1.2-1.9-3-1.9-5.4V9.4h2.4v13.5c0,1.6,0.4,2.9,1.2,3.7
			s1.9,1.3,3.4,1.3c1.5,0,2.6-0.4,3.4-1.3s1.1-2.1,1.1-3.7V9.4h2.4v13.5c0,2.3-0.6,4.1-1.9,5.4C176.9,29.5,175.2,30.1,173,30.1z"/>
		<path class="st2" d="M184,29.7V9.4h4.9l5.9,19.3h0.3V9.4h2.4v20.3h-4.9l-5.9-19.3h-0.3v19.3H184z"/>
		<path class="st2" d="M202.1,29.7v-2.3h5.2V11.7h-5.2V9.4H215v2.3h-5.2v15.8h5.2v2.3H202.1z"/>
		<path class="st2" d="M219.5,29.7v-2.3h1.7V11.7h-1.7V9.4h6.7c2.5,0,4.3,0.6,5.5,1.8s1.8,3.1,1.8,5.7v5.2c0,2.6-0.6,4.5-1.8,5.7
			s-3,1.8-5.5,1.8H219.5z M223.7,27.4h2.1c1.2,0,2.2-0.2,2.9-0.5c0.8-0.3,1.3-0.9,1.7-1.7c0.4-0.8,0.6-1.9,0.6-3.3v-4.9
			c0-1.4-0.2-2.5-0.6-3.3s-0.9-1.3-1.7-1.7s-1.7-0.5-2.9-0.5h-2.1V27.4z"/>
		<path class="st2" d="M235.6,29.7l6.1-20.3h4.6l6.1,20.3h-2.6l-1.5-5h-8.7l-1.5,5H235.6z M240.3,22.4h7.4l-3.5-11.9h-0.3
			L240.3,22.4z"/>
		<path class="st2" d="M255,29.7v-2.3h1.7V11.7H255V9.4h6.7c2.5,0,4.3,0.6,5.5,1.8s1.8,3.1,1.8,5.7v5.2c0,2.6-0.6,4.5-1.8,5.7
			s-3,1.8-5.5,1.8H255z M259.2,27.4h2.1c1.2,0,2.2-0.2,2.9-0.5c0.8-0.3,1.3-0.9,1.7-1.7c0.4-0.8,0.6-1.9,0.6-3.3v-4.9
			c0-1.4-0.2-2.5-0.6-3.3s-0.9-1.3-1.7-1.7s-1.7-0.5-2.9-0.5h-2.1V27.4z"/>
	</g>
</g>
</svg>
