<?xml version="1.0" encoding="utf-8"?>
<!-- Generator: Adobe Illustrator 25.2.0, SVG Export Plug-In . SVG Version: 6.00 Build 0)  -->
<svg version="1.1" id="Capa_1" xmlns="http://www.w3.org/2000/svg" xmlns:xlink="http://www.w3.org/1999/xlink" x="0px" y="0px"
	 viewBox="0 0 463.8 41.2" style="enable-background:new 0 0 463.8 41.2;" xml:space="preserve">
<style type="text/css">
	.st0{fill:none;stroke:#00FFFF;stroke-width:2;stroke-miterlimit:10;}
	.st1{enable-background:new    ;}
	.st2{fill:#00FFFF;}
</style>
<g id="Layer_1">
	<ellipse class="st0" cx="45.1" cy="20.6" rx="44.1" ry="19.6"/>
	<ellipse class="st0" cx="45.1" cy="20.6" rx="31.8" ry="19.6"/>
	<circle class="st0" cx="45.1" cy="20.6" r="19.6"/>
	<line class="st0" x1="89.2" y1="20.6" x2="64.7" y2="20.6"/>
	<line class="st0" x1="25.5" y1="20.6" x2="1" y2="20.6"/>
</g>
<g class="st1">
	<path class="st2" d="M112.9,29.9V9.6h7.2c1.4,0,2.5,0.3,3.5,0.8c0.9,0.5,1.6,1.2,2.1,2s0.7,1.7,0.7,2.7v0.9c0,1-0.2,1.9-0.7,2.8
		s-1.2,1.5-2.1,2c-0.9,0.5-2.1,0.8-3.4,0.8h-4.8v8.4H112.9z M115.3,19.3h4.5c2.7,0,4.1-1.2,4.1-3.5v-0.5c0-1-0.3-1.9-1-2.5
		c-0.7-0.6-1.7-0.9-3.1-0.9h-4.5V19.3z"/>
	<path class="st2" d="M130.6,29.9V9.6h7.2c1.4,0,2.5,0.3,3.5,0.8c0.9,0.5,1.6,1.2,2.1,2s0.7,1.7,0.7,2.7v0.9c0,0.8-0.2,1.5-0.6,2.3
		c-0.4,0.8-1.1,1.3-1.9,1.7v0.3c0.6,0.1,1,0.3,1.4,0.7c0.3,0.4,0.5,0.9,0.5,1.6v7.3h-2.4v-6.8c0-0.5-0.1-0.9-0.3-1.2
		c-0.2-0.3-0.6-0.4-1.2-0.4h-6.3v8.4H130.6z M133.1,19.3h4.5c2.7,0,4.1-1.2,4.1-3.5v-0.5c0-1-0.3-1.9-1-2.5
		c-0.7-0.6-1.7-0.9-3.1-0.9h-4.5V19.3z"/>
	<path class="st2" d="M148.6,29.9V9.6h12.3v2.3h-9.9v6.7h9.7v2.3h-9.7v6.8h10v2.3H148.6z"/>
	<path class="st2" d="M172.4,30.3c-2.2,0-3.9-0.7-5.1-2.1c-1.3-1.4-1.9-3.5-1.9-6.2v-4.5c0-2.6,0.6-4.6,1.9-6.1
		c1.3-1.5,3-2.2,5.2-2.2c1.5,0,2.9,0.3,3.9,1s1.9,1.5,2.4,2.7c0.5,1.1,0.8,2.4,0.8,3.7v0.3h-2.4v-0.3c0-0.9-0.2-1.7-0.5-2.5
		s-0.8-1.4-1.5-1.9s-1.6-0.7-2.7-0.7c-1.6,0-2.7,0.6-3.5,1.7c-0.8,1.1-1.2,2.6-1.2,4.5v4.2c0,2,0.4,3.5,1.2,4.6
		c0.8,1.1,2,1.6,3.6,1.6c1.4,0,2.6-0.5,3.4-1.4c0.8-0.9,1.2-2.2,1.2-3.9v-0.3h-6.6v-2.3h9v9.7h-2.3v-2.4H177c-0.3,0.8-0.9,1.5-1.7,2
		S173.5,30.3,172.4,30.3z"/>
	<path class="st2" d="M190.3,30.3c-2.1,0-3.8-0.6-5.1-1.9s-1.9-3-1.9-5.4V9.6h2.4V23c0,1.6,0.4,2.9,1.2,3.7s1.9,1.3,3.4,1.3
		c1.5,0,2.6-0.4,3.4-1.3s1.1-2.1,1.1-3.7V9.6h2.4V23c0,2.3-0.6,4.1-1.9,5.4S192.4,30.3,190.3,30.3z"/>
	<path class="st2" d="M201.3,29.9V9.6h4.9l5.9,19.3h0.3V9.6h2.4v20.3h-4.9L204,10.6h-0.3v19.3H201.3z"/>
	<path class="st2" d="M224.5,29.9v-18h-5.9V9.6h14.3v2.3H227v18H224.5z"/>
	<path class="st2" d="M235.1,29.9l6.1-20.3h4.6l6.1,20.3h-2.6l-1.5-5h-8.7l-1.5,5H235.1z M239.8,22.6h7.4l-3.5-11.9h-0.3L239.8,22.6
		z"/>
	<path class="st2" d="M261.7,30.3c-1.7,0-3.2-0.3-4.4-1c-1.2-0.6-2.1-1.5-2.7-2.7c-0.6-1.1-0.9-2.4-0.9-3.8V22h2.4v0.7
		c0,1.8,0.5,3.1,1.5,4c1,0.9,2.3,1.3,4.1,1.3c1.5,0,2.6-0.3,3.4-1c0.8-0.7,1.1-1.6,1.1-2.6v-0.2c0-1.1-0.4-1.9-1.2-2.4
		c-0.8-0.6-2.1-1-3.8-1.2c-2-0.3-3.6-0.9-4.9-1.7c-1.2-0.9-1.8-2.2-1.8-3.9v-0.3c0-1.1,0.3-2,0.9-2.8c0.6-0.8,1.4-1.4,2.4-1.9
		s2.2-0.7,3.5-0.7c1.5,0,2.8,0.3,3.9,0.8c1.1,0.6,1.9,1.3,2.5,2.2c0.6,0.9,0.9,1.9,0.9,3v1.2H266v-1c0-0.9-0.2-1.6-0.7-2.2
		c-0.4-0.6-1-1-1.8-1.3c-0.7-0.3-1.5-0.5-2.4-0.5c-0.7,0-1.4,0.1-2.1,0.4c-0.6,0.3-1.2,0.6-1.6,1.1s-0.6,1.1-0.6,1.8v0.2
		c0,1.1,0.5,1.9,1.4,2.5c0.9,0.5,2.3,0.9,4.1,1.2c2.1,0.3,3.7,0.9,4.7,1.9c1,0.9,1.5,2.2,1.5,3.7v0.3c0,1.8-0.6,3.2-1.8,4.3
		C265.7,29.7,263.9,30.3,261.7,30.3z"/>
	<path class="st2" d="M290.6,29.9V9.6h12.5v2.3h-10v6.7h9.9v2.3h-9.9v9H290.6z"/>
	<path class="st2" d="M308.1,29.9V9.6h7.2c1.4,0,2.5,0.3,3.5,0.8c0.9,0.5,1.6,1.2,2.1,2s0.7,1.7,0.7,2.7v0.9c0,0.8-0.2,1.5-0.6,2.3
		s-1.1,1.3-1.9,1.7v0.3c0.6,0.1,1,0.3,1.4,0.7s0.5,0.9,0.5,1.6v7.3h-2.4v-6.8c0-0.5-0.1-0.9-0.3-1.2c-0.2-0.3-0.6-0.4-1.2-0.4h-6.3
		v8.4H308.1z M310.5,19.3h4.5c2.7,0,4.1-1.2,4.1-3.5v-0.5c0-1-0.3-1.9-1-2.5c-0.7-0.6-1.7-0.9-3.1-0.9h-4.5V19.3z"/>
	<path class="st2" d="M326.1,29.9V9.6h12.3v2.3h-9.9v6.7h9.7v2.3h-9.7v6.8h10v2.3H326.1z"/>
	<path class="st2" d="M350.1,30.3c-2.2,0-4-0.7-5.2-2.1c-1.3-1.4-1.9-3.5-1.9-6.2v-4.5c0-2.6,0.6-4.6,1.9-6.1c1.3-1.5,3-2.2,5.2-2.2
		c1.5,0,2.9,0.3,3.9,1s1.9,1.5,2.4,2.7c0.5,1.1,0.8,2.4,0.8,3.7v0.3h-2.4v-0.3c0-0.9-0.2-1.7-0.5-2.5s-0.8-1.4-1.5-1.9
		c-0.7-0.5-1.6-0.7-2.7-0.7c-1.6,0-2.7,0.6-3.5,1.7c-0.8,1.1-1.2,2.6-1.2,4.5v4.2c0,2,0.4,3.5,1.2,4.6c0.8,1.1,2,1.6,3.5,1.6
		c1.1,0,2-0.2,2.7-0.7c0.7-0.5,1.2-1.1,1.5-1.9c0.3-0.8,0.5-1.6,0.5-2.5v-0.3h2.4v0.3c0,1.4-0.3,2.6-0.8,3.7c-0.5,1.1-1.3,2-2.4,2.7
		S351.7,30.3,350.1,30.3z"/>
	<path class="st2" d="M367.7,30.3c-2.1,0-3.8-0.6-5.1-1.9s-1.9-3-1.9-5.4V9.6h2.4V23c0,1.6,0.4,2.9,1.2,3.7s1.9,1.3,3.4,1.3
		c1.5,0,2.6-0.4,3.4-1.3s1.1-2.1,1.1-3.7V9.6h2.4V23c0,2.3-0.6,4.1-1.9,5.4S369.9,30.3,367.7,30.3z"/>
	<path class="st2" d="M379.3,29.9V9.6h12.3v2.3h-9.9v6.7h9.7v2.3h-9.7v6.8h10v2.3H379.3z"/>
	<path class="st2" d="M396.5,29.9V9.6h4.9l5.9,19.3h0.3V9.6h2.4v20.3h-4.9l-5.9-19.3h-0.3v19.3H396.5z"/>
	<path class="st2" d="M419.8,29.9v-18h-5.9V9.6h14.3v2.3h-5.9v18H419.8z"/>
	<path class="st2" d="M432.6,29.9V9.6h12.3v2.3H435v6.7h9.7v2.3H435v6.8h10v2.3H432.6z"/>
	<path class="st2" d="M456.9,30.3c-1.7,0-3.2-0.3-4.4-1c-1.2-0.6-2.1-1.5-2.7-2.7s-0.9-2.4-0.9-3.8V22h2.4v0.7c0,1.8,0.5,3.1,1.5,4
		c1,0.9,2.3,1.3,4.1,1.3c1.5,0,2.6-0.3,3.4-1s1.1-1.6,1.1-2.6v-0.2c0-1.1-0.4-1.9-1.2-2.4c-0.8-0.6-2.1-1-3.8-1.2
		c-2-0.3-3.7-0.9-4.9-1.7s-1.8-2.2-1.8-3.9v-0.3c0-1.1,0.3-2,0.9-2.8c0.6-0.8,1.4-1.4,2.4-1.9c1-0.5,2.2-0.7,3.5-0.7
		c1.5,0,2.8,0.3,3.9,0.8c1.1,0.6,1.9,1.3,2.5,2.2c0.6,0.9,0.9,1.9,0.9,3v1.2h-2.4v-1c0-0.9-0.2-1.6-0.7-2.2c-0.4-0.6-1-1-1.8-1.3
		c-0.7-0.3-1.5-0.5-2.4-0.5c-0.7,0-1.4,0.1-2.1,0.4c-0.6,0.3-1.2,0.6-1.6,1.1c-0.4,0.5-0.6,1.1-0.6,1.8v0.2c0,1.1,0.5,1.9,1.4,2.5
		c0.9,0.5,2.3,0.9,4.1,1.2c2.1,0.3,3.7,0.9,4.7,1.9c1,0.9,1.5,2.2,1.5,3.7v0.3c0,1.8-0.6,3.2-1.8,4.3
		C460.9,29.7,459.2,30.3,456.9,30.3z"/>
</g>
<g class="st1">
	<path class="st2" d="M37.1,28.5c-1.9,0-3.3-0.6-4.4-1.8s-1.6-2.9-1.6-5.2v-3.8c0-2.2,0.5-3.9,1.6-5.1c1.1-1.2,2.5-1.8,4.4-1.8
		c1.9,0,3.4,0.6,4.4,1.8c1.1,1.2,1.6,2.9,1.6,5.1v3.8c0,2.3-0.5,4-1.6,5.2S39,28.5,37.1,28.5z M37.1,26.6c1.3,0,2.3-0.5,3-1.4
		s1-2.2,1-3.9v-3.5c0-1.6-0.3-2.8-1-3.8c-0.7-1-1.6-1.5-3-1.5c-1.3,0-2.3,0.5-3,1.5c-0.7,1-1,2.2-1,3.8v3.5c0,1.7,0.3,3,1,3.9
		S35.8,26.6,37.1,26.6z M37.1,21.2c-0.4,0-0.8-0.2-1.1-0.5s-0.5-0.7-0.5-1.1c0-0.4,0.2-0.8,0.5-1.1c0.3-0.3,0.7-0.5,1.1-0.5
		c0.4,0,0.8,0.2,1.1,0.5c0.3,0.3,0.5,0.7,0.5,1.1c0,0.4-0.2,0.8-0.5,1.1S37.5,21.2,37.1,21.2z"/>
	<path class="st2" d="M53.7,28.2v-3.2h-7.9v-2.8l6-11h4v12h2.6v1.9h-2.6v3.2H53.7z M47.5,23h6.2V12h-0.3l-5.9,10.8V23z"/>
</g>
</svg>
